<svg width="138" height="20" viewBox="0 0 138 20" fill="none" xmlns="http://www.w3.org/2000/svg">
<path d="M39.9014 9.92332C39.9014 9.92332 27.949 19.1174 24.875 19.2358C21.8015 19.3537 13.5724 14.2627 10.8467 13.936C8.12293 13.6099 0.219754 17.4386 0.207031 17.4448C0.211014 17.4386 2.86757 13.298 4.51367 12.2485C6.1611 11.1983 9.45402 10.2723 10.917 10.5054C12.38 10.7385 22.0513 15.9263 24.9482 15.6245C27.8448 15.3224 30.387 12.4839 32.0283 11.727C33.6697 10.9702 39.9014 9.92332 39.9014 9.92332ZM24.6045 0.762192C27.6801 0.790132 39.8975 9.63133 39.8975 9.63133C39.8975 9.63133 33.6374 8.76757 31.9746 8.05907C30.3118 7.35037 27.6882 4.58792 24.7842 4.37059C21.88 4.15329 12.3638 9.62116 10.9082 9.89696C9.45258 10.1727 6.13338 9.34391 4.45605 8.34227C2.7787 7.34051 0 3.27391 0 3.27391C0 3.27391 8.0233 6.87642 10.7383 6.4702C13.4535 6.06364 21.5287 0.734605 24.6045 0.762192Z" fill="url(#paint0_linear_9481_13186)"/>
<path d="M43.4854 2.96521H47.7217C48.6826 2.96521 49.4941 3.11169 50.1562 3.40466C50.8242 3.69763 51.3311 4.13123 51.6768 4.70544C52.0283 5.2738 52.2041 5.974 52.2041 6.80603C52.2041 7.39197 52.084 7.9281 51.8438 8.41443C51.6094 8.8949 51.2695 9.30505 50.8242 9.6449C50.3848 9.97888 49.8574 10.2279 49.2422 10.392L48.7676 10.5765H44.7861L44.7686 9.19666H47.7744C48.3838 9.19666 48.8906 9.09119 49.2949 8.88025C49.6992 8.66345 50.0039 8.37341 50.209 8.01013C50.4141 7.64685 50.5166 7.24548 50.5166 6.80603C50.5166 6.31384 50.4199 5.88318 50.2266 5.51404C50.0332 5.1449 49.7285 4.86072 49.3125 4.6615C48.9023 4.45642 48.3721 4.35388 47.7217 4.35388H45.1816V15.7621H43.4854V2.96521ZM50.9648 15.7621L47.8535 9.9613L49.6201 9.95251L52.7754 15.6566V15.7621H50.9648ZM59.9385 14.1361V9.2406C59.9385 8.8656 59.8623 8.54041 59.71 8.26501C59.5635 7.98376 59.3408 7.76697 59.042 7.61462C58.7432 7.46228 58.374 7.38611 57.9346 7.38611C57.5244 7.38611 57.1641 7.45642 56.8535 7.59705C56.5488 7.73767 56.3086 7.92224 56.1328 8.15076C55.9629 8.37927 55.8779 8.62537 55.8779 8.88904H54.252C54.252 8.54919 54.3398 8.21228 54.5156 7.8783C54.6914 7.54431 54.9434 7.24255 55.2715 6.97302C55.6055 6.69763 56.0039 6.48083 56.4668 6.32263C56.9355 6.15857 57.457 6.07654 58.0312 6.07654C58.7227 6.07654 59.332 6.19373 59.8594 6.4281C60.3926 6.66248 60.8086 7.01697 61.1074 7.49158C61.4121 7.96033 61.5645 8.54919 61.5645 9.25818V13.6879C61.5645 14.0043 61.5908 14.3412 61.6436 14.6986C61.7021 15.056 61.7871 15.3636 61.8984 15.6215V15.7621H60.2021C60.1201 15.5746 60.0557 15.3256 60.0088 15.015C59.9619 14.6986 59.9385 14.4056 59.9385 14.1361ZM60.2197 9.99646L60.2373 11.139H58.5938C58.1309 11.139 57.7178 11.1771 57.3545 11.2533C56.9912 11.3236 56.6865 11.432 56.4404 11.5785C56.1943 11.725 56.0068 11.9095 55.8779 12.1322C55.749 12.349 55.6846 12.6039 55.6846 12.8969C55.6846 13.1957 55.752 13.4681 55.8867 13.7142C56.0215 13.9603 56.2236 14.1566 56.4932 14.3031C56.7686 14.4437 57.1055 14.514 57.5039 14.514C58.002 14.514 58.4414 14.4086 58.8223 14.1976C59.2031 13.9867 59.5049 13.7289 59.7275 13.4242C59.9561 13.1195 60.0791 12.8236 60.0967 12.5365L60.791 13.3187C60.75 13.5648 60.6387 13.8373 60.457 14.1361C60.2754 14.4349 60.0322 14.722 59.7275 14.9974C59.4287 15.267 59.0713 15.4926 58.6553 15.6742C58.2451 15.85 57.7822 15.9379 57.2666 15.9379C56.6221 15.9379 56.0566 15.8119 55.5703 15.5599C55.0898 15.308 54.7148 14.9711 54.4453 14.5492C54.1816 14.1215 54.0498 13.6439 54.0498 13.1166C54.0498 12.6068 54.1494 12.1586 54.3486 11.7719C54.5479 11.3793 54.835 11.0541 55.21 10.7963C55.585 10.5326 56.0361 10.3334 56.5635 10.1986C57.0908 10.0638 57.6797 9.99646 58.3301 9.99646H60.2197ZM65.7393 8.14197V15.7621H64.1045V6.25232H65.6514L65.7393 8.14197ZM65.4053 10.6469L64.6494 10.6205C64.6553 9.97009 64.7402 9.36951 64.9043 8.81873C65.0684 8.26208 65.3115 7.77869 65.6338 7.36853C65.9561 6.95837 66.3574 6.64197 66.8379 6.41931C67.3184 6.1908 67.875 6.07654 68.5078 6.07654C68.9531 6.07654 69.3633 6.14099 69.7383 6.2699C70.1133 6.39294 70.4385 6.58923 70.7139 6.85876C70.9893 7.1283 71.2031 7.474 71.3555 7.89587C71.5078 8.31775 71.584 8.82751 71.584 9.42517V15.7621H69.958V9.50427C69.958 9.00623 69.873 8.60779 69.7031 8.30896C69.5391 8.01013 69.3047 7.79333 69 7.65857C68.6953 7.51794 68.3379 7.44763 67.9277 7.44763C67.4473 7.44763 67.0459 7.53259 66.7236 7.70251C66.4014 7.87244 66.1436 8.10681 65.9502 8.40564C65.7568 8.70447 65.6162 9.04724 65.5283 9.43396C65.4463 9.81482 65.4053 10.2191 65.4053 10.6469ZM71.5664 9.75037L70.4766 10.0844C70.4824 9.56287 70.5674 9.06189 70.7314 8.58142C70.9014 8.10095 71.1445 7.67322 71.4609 7.29822C71.7832 6.92322 72.1787 6.62732 72.6475 6.41052C73.1162 6.18787 73.6523 6.07654 74.2559 6.07654C74.7656 6.07654 75.2168 6.14392 75.6094 6.27869C76.0078 6.41345 76.3418 6.62146 76.6113 6.90271C76.8867 7.1781 77.0947 7.53259 77.2354 7.96619C77.376 8.39978 77.4463 8.91541 77.4463 9.51306V15.7621H75.8115V9.49548C75.8115 8.96228 75.7266 8.54919 75.5566 8.25623C75.3926 7.9574 75.1582 7.74939 74.8535 7.6322C74.5547 7.50916 74.1973 7.44763 73.7812 7.44763C73.4238 7.44763 73.1074 7.50916 72.832 7.6322C72.5566 7.75525 72.3252 7.92517 72.1377 8.14197C71.9502 8.35291 71.8066 8.59607 71.707 8.87146C71.6133 9.14685 71.5664 9.43982 71.5664 9.75037ZM85.5146 14.1361V9.2406C85.5146 8.8656 85.4385 8.54041 85.2861 8.26501C85.1396 7.98376 84.917 7.76697 84.6182 7.61462C84.3193 7.46228 83.9502 7.38611 83.5107 7.38611C83.1006 7.38611 82.7402 7.45642 82.4297 7.59705C82.125 7.73767 81.8848 7.92224 81.709 8.15076C81.5391 8.37927 81.4541 8.62537 81.4541 8.88904H79.8281C79.8281 8.54919 79.916 8.21228 80.0918 7.8783C80.2676 7.54431 80.5195 7.24255 80.8477 6.97302C81.1816 6.69763 81.5801 6.48083 82.043 6.32263C82.5117 6.15857 83.0332 6.07654 83.6074 6.07654C84.2988 6.07654 84.9082 6.19373 85.4355 6.4281C85.9688 6.66248 86.3848 7.01697 86.6836 7.49158C86.9883 7.96033 87.1406 8.54919 87.1406 9.25818V13.6879C87.1406 14.0043 87.167 14.3412 87.2197 14.6986C87.2783 15.056 87.3633 15.3636 87.4746 15.6215V15.7621H85.7783C85.6963 15.5746 85.6318 15.3256 85.585 15.015C85.5381 14.6986 85.5146 14.4056 85.5146 14.1361ZM85.7959 9.99646L85.8135 11.139H84.1699C83.707 11.139 83.2939 11.1771 82.9307 11.2533C82.5674 11.3236 82.2627 11.432 82.0166 11.5785C81.7705 11.725 81.583 11.9095 81.4541 12.1322C81.3252 12.349 81.2607 12.6039 81.2607 12.8969C81.2607 13.1957 81.3281 13.4681 81.4629 13.7142C81.5977 13.9603 81.7998 14.1566 82.0693 14.3031C82.3447 14.4437 82.6816 14.514 83.0801 14.514C83.5781 14.514 84.0176 14.4086 84.3984 14.1976C84.7793 13.9867 85.0811 13.7289 85.3037 13.4242C85.5322 13.1195 85.6553 12.8236 85.6729 12.5365L86.3672 13.3187C86.3262 13.5648 86.2148 13.8373 86.0332 14.1361C85.8516 14.4349 85.6084 14.722 85.3037 14.9974C85.0049 15.267 84.6475 15.4926 84.2314 15.6742C83.8213 15.85 83.3584 15.9379 82.8428 15.9379C82.1982 15.9379 81.6328 15.8119 81.1465 15.5599C80.666 15.308 80.291 14.9711 80.0215 14.5492C79.7578 14.1215 79.626 13.6439 79.626 13.1166C79.626 12.6068 79.7256 12.1586 79.9248 11.7719C80.124 11.3793 80.4111 11.0541 80.7861 10.7963C81.1611 10.5326 81.6123 10.3334 82.1396 10.1986C82.667 10.0638 83.2559 9.99646 83.9062 9.99646H85.7959ZM91.3242 7.74646V15.7621H89.6982V6.25232H91.2803L91.3242 7.74646ZM94.2949 6.19958L94.2861 7.7113C94.1514 7.68201 94.0225 7.66443 93.8994 7.65857C93.7822 7.64685 93.6475 7.64099 93.4951 7.64099C93.1201 7.64099 92.7891 7.69958 92.502 7.81677C92.2148 7.93396 91.9717 8.09802 91.7725 8.30896C91.5732 8.5199 91.415 8.77185 91.2979 9.06482C91.1865 9.35193 91.1133 9.66833 91.0781 10.014L90.6211 10.2777C90.6211 9.70349 90.6768 9.16443 90.7881 8.66052C90.9053 8.15662 91.084 7.7113 91.3242 7.32458C91.5645 6.93201 91.8691 6.62732 92.2383 6.41052C92.6133 6.18787 93.0586 6.07654 93.5742 6.07654C93.6914 6.07654 93.8262 6.09119 93.9785 6.12048C94.1309 6.14392 94.2363 6.17029 94.2949 6.19958ZM95.1914 11.1127V10.9105C95.1914 10.225 95.291 9.58923 95.4902 9.0033C95.6895 8.4115 95.9766 7.8988 96.3516 7.46521C96.7266 7.02576 97.1807 6.68591 97.7139 6.44568C98.2471 6.19958 98.8447 6.07654 99.5068 6.07654C100.175 6.07654 100.775 6.19958 101.309 6.44568C101.848 6.68591 102.305 7.02576 102.68 7.46521C103.061 7.8988 103.351 8.4115 103.55 9.0033C103.749 9.58923 103.849 10.225 103.849 10.9105V11.1127C103.849 11.7982 103.749 12.434 103.55 13.0199C103.351 13.6058 103.061 14.1185 102.68 14.558C102.305 14.9916 101.851 15.3314 101.317 15.5775C100.79 15.8177 100.192 15.9379 99.5244 15.9379C98.8564 15.9379 98.2559 15.8177 97.7227 15.5775C97.1895 15.3314 96.7324 14.9916 96.3516 14.558C95.9766 14.1185 95.6895 13.6058 95.4902 13.0199C95.291 12.434 95.1914 11.7982 95.1914 11.1127ZM96.8174 10.9105V11.1127C96.8174 11.5873 96.873 12.0355 96.9844 12.4574C97.0957 12.8734 97.2627 13.2426 97.4854 13.5648C97.7139 13.8871 97.998 14.142 98.3379 14.3295C98.6777 14.5111 99.0732 14.6019 99.5244 14.6019C99.9697 14.6019 100.359 14.5111 100.693 14.3295C101.033 14.142 101.314 13.8871 101.537 13.5648C101.76 13.2426 101.927 12.8734 102.038 12.4574C102.155 12.0355 102.214 11.5873 102.214 11.1127V10.9105C102.214 10.4418 102.155 9.99939 102.038 9.58337C101.927 9.1615 101.757 8.78943 101.528 8.46716C101.306 8.13904 101.024 7.88123 100.685 7.69373C100.351 7.50623 99.958 7.41248 99.5068 7.41248C99.0615 7.41248 98.6689 7.50623 98.3291 7.69373C97.9951 7.88123 97.7139 8.13904 97.4854 8.46716C97.2627 8.78943 97.0957 9.1615 96.9844 9.58337C96.873 9.99939 96.8174 10.4418 96.8174 10.9105Z" fill="url(#paint1_linear_9481_13186)"/>
<path d="M107.182 2.96521V15.7621H105.485V2.96521H107.182ZM112.543 8.72205V10.1107H106.812V8.72205H112.543ZM113.413 2.96521V4.35388H106.812V2.96521H113.413ZM116.955 6.25232V15.7621H115.32V6.25232H116.955ZM115.197 3.72986C115.197 3.46619 115.276 3.24353 115.435 3.06189C115.599 2.88025 115.839 2.78943 116.155 2.78943C116.466 2.78943 116.703 2.88025 116.867 3.06189C117.037 3.24353 117.122 3.46619 117.122 3.72986C117.122 3.98181 117.037 4.19861 116.867 4.38025C116.703 4.55603 116.466 4.64392 116.155 4.64392C115.839 4.64392 115.599 4.55603 115.435 4.38025C115.276 4.19861 115.197 3.98181 115.197 3.72986ZM125.103 13.2396C125.103 13.0052 125.05 12.7885 124.944 12.5892C124.845 12.3842 124.637 12.1996 124.32 12.0355C124.01 11.8656 123.541 11.7191 122.914 11.5961C122.387 11.4847 121.909 11.3529 121.481 11.2006C121.06 11.0482 120.699 10.8636 120.4 10.6469C120.107 10.4301 119.882 10.1752 119.724 9.8822C119.565 9.58923 119.486 9.24646 119.486 8.85388C119.486 8.47888 119.568 8.12439 119.732 7.79041C119.902 7.45642 120.14 7.16052 120.444 6.90271C120.755 6.6449 121.127 6.44275 121.561 6.29626C121.994 6.14978 122.478 6.07654 123.011 6.07654C123.772 6.07654 124.423 6.2113 124.962 6.48083C125.501 6.75037 125.914 7.11072 126.201 7.56189C126.488 8.0072 126.632 8.50232 126.632 9.04724H125.006C125.006 8.78357 124.927 8.52869 124.769 8.28259C124.616 8.03064 124.391 7.82263 124.092 7.65857C123.799 7.49451 123.438 7.41248 123.011 7.41248C122.56 7.41248 122.193 7.48279 121.912 7.62341C121.637 7.75818 121.435 7.93103 121.306 8.14197C121.183 8.35291 121.121 8.57556 121.121 8.80994C121.121 8.98572 121.15 9.14392 121.209 9.28455C121.273 9.41931 121.385 9.54529 121.543 9.66248C121.701 9.7738 121.924 9.87927 122.211 9.97888C122.498 10.0785 122.864 10.1781 123.31 10.2777C124.089 10.4535 124.73 10.6644 125.234 10.9105C125.738 11.1566 126.113 11.4584 126.359 11.8158C126.605 12.1732 126.729 12.6068 126.729 13.1166C126.729 13.5326 126.641 13.9135 126.465 14.2592C126.295 14.6049 126.046 14.9037 125.718 15.1556C125.396 15.4017 125.009 15.5951 124.558 15.7357C124.112 15.8705 123.611 15.9379 123.055 15.9379C122.217 15.9379 121.508 15.7885 120.928 15.4896C120.348 15.1908 119.908 14.8041 119.609 14.3295C119.311 13.8549 119.161 13.3539 119.161 12.8265H120.796C120.819 13.2719 120.948 13.6263 121.183 13.89C121.417 14.1478 121.704 14.3324 122.044 14.4437C122.384 14.5492 122.721 14.6019 123.055 14.6019C123.5 14.6019 123.872 14.5433 124.171 14.4261C124.476 14.309 124.707 14.1478 124.865 13.9427C125.023 13.7377 125.103 13.5033 125.103 13.2396ZM130.49 2.26208V15.7621H128.864V2.26208H130.49ZM130.104 10.6469L129.427 10.6205C129.433 9.97009 129.529 9.36951 129.717 8.81873C129.904 8.26208 130.168 7.77869 130.508 7.36853C130.848 6.95837 131.252 6.64197 131.721 6.41931C132.195 6.1908 132.72 6.07654 133.294 6.07654C133.763 6.07654 134.185 6.14099 134.56 6.2699C134.935 6.39294 135.254 6.59216 135.518 6.86755C135.787 7.14294 135.992 7.50037 136.133 7.93982C136.273 8.37341 136.344 8.90369 136.344 9.53064V15.7621H134.709V9.51306C134.709 9.01501 134.636 8.61658 134.489 8.31775C134.343 8.01306 134.129 7.79333 133.848 7.65857C133.566 7.51794 133.221 7.44763 132.811 7.44763C132.406 7.44763 132.037 7.53259 131.703 7.70251C131.375 7.87244 131.091 8.10681 130.851 8.40564C130.616 8.70447 130.432 9.04724 130.297 9.43396C130.168 9.81482 130.104 10.2191 130.104 10.6469Z" fill="url(#paint2_linear_9481_13186)"/>
<defs>
<linearGradient id="paint0_linear_9481_13186" x1="0.27892" y1="13.9258" x2="39.8031" y2="14.7335" gradientUnits="userSpaceOnUse">
<stop offset="0.0896658" stop-color="#144764"/>
<stop offset="0.208426" stop-color="#288FCA"/>
<stop offset="0.53748" stop-color="#144764"/>
<stop offset="0.537873" stop-color="#144764"/>
<stop offset="0.843722" stop-color="#288FCA"/>
<stop offset="0.919604" stop-color="#144764"/>
</linearGradient>
<linearGradient id="paint1_linear_9481_13186" x1="42" y1="9.76208" x2="105" y2="9.76208" gradientUnits="userSpaceOnUse">
<stop stop-color="#288FCA"/>
<stop offset="0.225" stop-color="#2582B7"/>
<stop offset="0.550412" stop-color="#154B69"/>
<stop offset="1" stop-color="#144764"/>
</linearGradient>
<linearGradient id="paint2_linear_9481_13186" x1="104" y1="9.76208" x2="138" y2="9.76208" gradientUnits="userSpaceOnUse">
<stop stop-color="#288FCA"/>
<stop offset="0.225" stop-color="#2582B7"/>
<stop offset="0.550412" stop-color="#154B69"/>
<stop offset="1" stop-color="#144764"/>
</linearGradient>
</defs>
</svg>
